# xmcd CD database file
#
# Track frame offsets:
#	151
#	11136
#	23471
#	45609
#	62882
#	81233
#	101214
#	117195
#	138940
#	160475
#	191782
#	221601
#	242100
#	259423
#	286620
#	309329
#	321939
#
# Disc length: 4630 seconds
#
# Revision: 0
# Processed by: cddbd v1.4PL0 Copyright (c) Steve Scherf et al.
# Submitted via: CDex 1.50
#
DISCID=f4121411
DTITLE=Oceana - A Tribute To THE VERY BEST OF Vangelis
DYEAR=2002
DGENRE=New Age
TTITLE0=Bon voyage
TTITLE1=Dreams of surf
TTITLE2=Conquest of paradise
TTITLE3=Chariots of fire
TTITLE4=Hymne
TTITLE5=I'll find my way home
TTITLE6=Theme from bitter moon
TTITLE7=Antarctica
TTITLE8=Italian song
TTITLE9=Himalaya
TTITLE10=To the unknown man
TTITLE11=Eric's Theme
TTITLE12=Missing
TTITLE13=Apocalypse de animaux
TTITLE14=The will of the wind
TTITLE15=Tao of love
TTITLE16=Pulstar
EXTD=YEAR: 2002
EXTT0=
EXTT1=
EXTT2=
EXTT3=
EXTT4=
EXTT5=
EXTT6=
EXTT7=
EXTT8=
EXTT9=
EXTT10=
EXTT11=
EXTT12=
EXTT13=
EXTT14=
EXTT15=
EXTT16=
PLAYORDER=
